<svg width="36" height="36" viewBox="0 0 36 36" fill="none" xmlns="http://www.w3.org/2000/svg">
<path d="M22.4955 3L31.5 12L31.5015 18.39C30.0256 17.1657 28.1676 16.497 26.25 16.5L25.9185 16.506C24.125 16.5776 22.4037 17.2322 21.0158 18.3705C19.628 19.5088 18.6492 21.0687 18.228 22.8135L18.204 22.9245L18.159 22.9545C17.3681 23.4845 16.6914 24.1676 16.169 24.9635C15.6466 25.7594 15.2889 26.6519 15.1172 27.5884C14.9455 28.5248 14.9632 29.4862 15.1693 30.4156C15.3753 31.3451 15.7656 32.2239 16.317 33H5.9895C5.62487 33 5.27292 32.8662 5.00034 32.624C4.72775 32.3818 4.55346 32.0481 4.5105 31.686L4.5 31.512V4.488C4.5 3.741 5.0805 3.0975 5.8275 3.0105L6.003 3H22.4955ZM26.25 19.5C27.6424 19.5 28.9777 20.0531 29.9623 21.0377C30.9469 22.0223 31.5 23.3576 31.5 24.75L31.497 24.9045C32.4353 25.1688 33.2497 25.7569 33.7958 26.5645C34.3418 27.372 34.5842 28.3469 34.4799 29.3162C34.3757 30.2854 33.9315 31.1864 33.2262 31.8594C32.5209 32.5324 31.6001 32.9338 30.627 32.9925L30.375 33H22.125L21.873 32.9925C20.8992 32.9345 19.9775 32.5332 19.2715 31.86C18.5655 31.1868 18.121 30.2851 18.0168 29.3151C17.9127 28.3452 18.1557 27.3697 18.7027 26.5619C19.2496 25.7542 20.0652 25.1664 21.0045 24.903L21 24.75C21 23.3576 21.5531 22.0223 22.5377 21.0377C23.5223 20.0531 24.8576 19.5 26.25 19.5Z" fill="#000000"/>
</svg>
