<svg width="195" height="115" viewBox="0 0 195 115" fill="none" xmlns="http://www.w3.org/2000/svg">
<path d="M168 108C165.667 109.667 134.5 112.9 28.5 112.5C28.1667 112.167 27.2 111.4 26 111C24.5 110.5 22 108 20.5 108C19.3 108 17 104.333 16 102.5L11 98L6 94.5C5.16667 93 3.5 89.8 3.5 89C3.5 88.2 2.5 85 2 83.5V79V73.5L3.5 67V63L6 58.5L7.5 54.5L9.5 50L13.5 46.5L16 44.5L20.5 40.5L26 37.5L34.5 36L38.5 37.5H42.5L46 36L49.5 35L51.5 32L53 28.5V25.5L55 21L57 19L58.5 16.5L61 13.5L64 10.5L66 9L70 6L75.5 3.5L81.5 2H89.5H95.5L102.5 3.5L110 7L119 15H122L129 13.5H138.5H145L150.5 16.5L156 21L159.5 27L162 35L166 37.5L172.5 40.5L181 47.5L188.5 56L191 65.5L192.5 75L191 84.5L188.5 91.5L184 98L179.5 102.5L168 108Z" stroke="white" stroke-width="4"/>
</svg>
